#N canvas 211 72 220 412 10;
#N canvas 349 107 931 643 Falcon 0;
#X msg 39 46 open;
#X msg 39 165 close;
#X msg 39 23 count;
#X text 276 446 buttons;
#X text 75 21 print count of devices to pd window;
#X text 68 45 open device;
#X text -69 545 See http://www.nonpolynomial.com/libnifalcon/np_nifalcon
for more information;
#X text 132 66 send firmware;
#X text 587 300 Highly recommended this be on;
#X text 586 315 at all times;
#X msg -76 100 stop;
#X msg 38 116 start;
#X msg 39 142 raw;
#X obj 331 431 tgl 15 0 empty empty empty 17 7 0 10 -262144 -1 -1 0
8;
#X obj 309 431 tgl 15 0 empty empty empty 17 7 0 10 -262144 -1 -1 0
4;
#X obj 288 431 tgl 15 0 empty empty empty 17 7 0 10 -262144 -1 -1 0
2;
#X obj 267 431 tgl 15 0 empty empty empty 17 7 0 10 -262144 -1 -1 0
1;
#X msg 110 323 0;
#X obj -73 -1 t b b b b b b b;
#X obj 156 271 r falconcmd;
#X obj -49 191 s falconcmd;
#X obj -73 -20 bng 15 250 50 0 empty empty empty 0 -6 0 10 -262144
-1 -1;
#X text -69 322 To reset motor forces to zero;
#X text 64 140 use torques and angles;
#X text 86 90 use forces and positions;
#X obj 99 -54 inlet;
#X obj 254 140 inlet;
#X obj 308 141 inlet;
#X obj 361 139 inlet;
#X obj 409 203 inlet;
#X obj 409 224 route R G B;
#X obj 85 493 outlet;
#X obj 131 493 outlet;
#X obj 177 493 outlet;
#X obj 366 477 > 0;
#X obj 428 477 > 0;
#X msg 428 498 Left \$1;
#X obj 246 497 > 0;
#X msg 246 518 Right \$1;
#X obj 312 501 > 0;
#X msg 312 522 Fwd \$1;
#X text 207 -59 Edgar Berdahl created this in 2008 to hide some of
the details behind controlling the Falcon beta driver.;
#X text -57 -22 Initialize Falcon;
#X text 126 199 Forces in ...........;
#X obj 484 115 line;
#X floatatom 484 136 5 0 0 0 - - -;
#X obj 361 185 *;
#X obj 484 53 spigot;
#X obj 517 34 tgl 15 0 empty empty empty 0 -6 0 10 -262144 -1 -1 1
1;
#X obj 517 -9 loadbang;
#X obj 484 74 tgl 15 0 empty empty empty 0 -6 0 10 -262144 -1 -1 0
1;
#X obj 484 32 / 4;
#X text 534 31 Automatically turn on/off haptics by center button;
#X text 500 71 Turn on/off haptics manually;
#X obj 308 185 *;
#X obj 254 185 *;
#X msg 484 93 \$1 280;
#X obj 517 12 delay 400;
#X obj 397 414 sel 0;
#X obj 397 437 print WARNINGHOMINGISOFF;
#X obj 645 247 metro 5;
#X obj 645 206 loadbang;
#X obj 645 228 tgl 15 0 empty empty empty 0 -6 0 10 -262144 -1 -1 1
1;
#X msg 645 268 1;
#X obj 265 353 np_nifalcon;
#X msg -76 121 raw;
#X obj 527 321 tgl 15 0 empty empty empty 17 7 0 10 -262144 -1 -1 1
1;
#X obj 527 298 loadbang;
#X obj 397 393 tgl 15 0 empty empty empty 17 7 0 10 -262144 -1 -1 1
1;
#X obj -62 404 unpack 0 0 0;
#X obj 91 407 unpack 0 0 0;
#X obj 267 409 unpack 0 0 0 0;
#X floatatom -62 435 5 0 0 0 - - -;
#X floatatom -22 436 5 0 0 0 - - -;
#X floatatom 19 437 5 0 0 0 - - -;
#X floatatom 71 439 5 0 0 0 - - -;
#X floatatom 131 440 5 0 0 0 - - -;
#X floatatom 171 440 5 0 0 0 - - -;
#X obj 262 310 pack 0 0 0;
#X obj 342 310 pack 0 0 0;
#X obj 487 274 tgl 15 0 empty empty empty 17 7 0 10 -262144 -1 -1 0
1;
#X obj 453 274 tgl 15 0 empty empty empty 17 7 0 10 -262144 -1 -1 0
1;
#X obj 419 273 tgl 15 0 empty empty empty 17 7 0 10 -262144 -1 -1 0
1;
#X obj 426 310 pack 0 0 0;
#X msg -76 142 show_ioerror;
#X text -66 449 raw encoder values;
#X text 101 509 x/y/z position;
#X text 415 390 homing status;
#X text 419 257 leds (r \, g \, b);
#X text 588 288 homing;
#X floatatom 370 271 5 0 0 0 - - -;
#X floatatom 356 251 5 0 0 0 - - -;
#X floatatom 381 289 5 0 0 0 - - -;
#X floatatom 296 265 5 0 0 0 - - -;
#X floatatom 286 243 5 0 0 0 - - -;
#X floatatom 307 285 5 0 0 0 - - -;
#X text 259 224 raw force;
#X text 325 230 kinematic force;
#X msg 39 69 nvent_firmware;
#X msg 38 92 vector;
#X obj 176 467 * 1000;
#X obj 125 466 * 1000;
#X obj 75 466 * 1000;
#X obj 252 69 metro 1;
#X obj 240 41 tgl 15 0 empty empty empty 17 7 0 10 -262144 -1 -1 1
1;
#X obj 252 91 bng 15 250 50 0 empty empty empty 17 7 0 10 -262144 -1
-1;
#X floatatom 403 143 5 0 0 0 - - -;
#X obj 254 162 / 12;
#X obj 308 163 / 12;
#X obj 361 161 / 12;
#X msg 361 517 Fire \$1;
#X obj 66 -15 match 1;
#X obj 154 -8 match 0;
#X obj 333 550 outlet;
#X text 209 -28 Christian Frisson modified this in 2010 to give an
instant overview of the available controls and parameters.;
#X connect 0 0 20 0;
#X connect 1 0 20 0;
#X connect 2 0 20 0;
#X connect 10 0 20 0;
#X connect 11 0 20 0;
#X connect 12 0 20 0;
#X connect 13 0 35 0;
#X connect 14 0 34 0;
#X connect 14 0 51 0;
#X connect 15 0 39 0;
#X connect 16 0 37 0;
#X connect 17 0 92 0;
#X connect 17 0 90 0;
#X connect 17 0 91 0;
#X connect 18 1 17 0;
#X connect 18 2 11 0;
#X connect 18 2 104 0;
#X connect 18 3 99 0;
#X connect 18 4 98 0;
#X connect 18 5 0 0;
#X connect 18 6 2 0;
#X connect 19 0 64 0;
#X connect 21 0 18 0;
#X connect 25 0 64 0;
#X connect 25 0 111 0;
#X connect 25 0 112 0;
#X connect 26 0 107 0;
#X connect 27 0 108 0;
#X connect 28 0 109 0;
#X connect 29 0 30 0;
#X connect 30 0 82 0;
#X connect 30 1 81 0;
#X connect 30 2 80 0;
#X connect 34 0 110 0;
#X connect 35 0 36 0;
#X connect 36 0 113 0;
#X connect 37 0 38 0;
#X connect 38 0 113 0;
#X connect 39 0 40 0;
#X connect 40 0 113 0;
#X connect 44 0 45 0;
#X connect 45 0 46 1;
#X connect 45 0 54 1;
#X connect 45 0 55 1;
#X connect 46 0 92 0;
#X connect 47 0 50 0;
#X connect 48 0 47 1;
#X connect 49 0 57 0;
#X connect 50 0 56 0;
#X connect 51 0 47 0;
#X connect 54 0 90 0;
#X connect 55 0 91 0;
#X connect 56 0 44 0;
#X connect 57 0 48 0;
#X connect 58 0 59 0;
#X connect 60 0 63 0;
#X connect 61 0 62 0;
#X connect 62 0 60 0;
#X connect 64 1 69 0;
#X connect 64 2 70 0;
#X connect 64 3 71 0;
#X connect 64 5 68 0;
#X connect 65 0 20 0;
#X connect 66 0 64 4;
#X connect 67 0 66 0;
#X connect 68 0 58 0;
#X connect 69 0 72 0;
#X connect 69 1 73 0;
#X connect 69 2 74 0;
#X connect 70 0 75 0;
#X connect 70 1 76 0;
#X connect 70 2 77 0;
#X connect 71 0 16 0;
#X connect 71 1 15 0;
#X connect 71 2 14 0;
#X connect 71 3 13 0;
#X connect 75 0 102 0;
#X connect 76 0 101 0;
#X connect 77 0 100 0;
#X connect 78 0 64 1;
#X connect 79 0 64 2;
#X connect 80 0 83 2;
#X connect 81 0 83 1;
#X connect 82 0 83 0;
#X connect 83 0 64 3;
#X connect 84 0 20 0;
#X connect 90 0 79 1;
#X connect 91 0 79 0;
#X connect 92 0 79 2;
#X connect 93 0 78 1;
#X connect 94 0 78 0;
#X connect 95 0 78 2;
#X connect 98 0 20 0;
#X connect 99 0 20 0;
#X connect 100 0 33 0;
#X connect 101 0 32 0;
#X connect 102 0 31 0;
#X connect 103 0 105 0;
#X connect 104 0 103 0;
#X connect 105 0 20 0;
#X connect 106 0 107 1;
#X connect 106 0 108 1;
#X connect 106 0 109 1;
#X connect 107 0 55 0;
#X connect 108 0 54 0;
#X connect 109 0 46 0;
#X connect 110 0 113 0;
#X connect 111 0 21 0;
#X connect 112 0 1 0;
#X restore -1 78 pd Falcon;
#X obj -77 -58 cnv 15 215 20 empty empty dc.3dmff.falcon 2 11 1 18
-204786 -33289 0;
#X obj -68 -17 inlet;
#X obj -68 55 tgl 15 0 empty empty empty 0 -6 0 8 -24198 -1 -1 1 1
;
#X obj -20 -38 cnv 15 100 20 empty empty DeviceCycle 2 11 1 18 -262144
-2049 0;
#X obj -55 261 outlet;
#X obj 30 282 cnv 20 25 20 empty empty art 0 10 0 14 -262144 -258113
0;
#X obj -17 282 cnv 20 45 20 empty empty numedi 0 10 0 14 -262144 -1
0;
#X obj 54 282 cnv 20 30 20 empty empty .org 0 10 0 14 -262144 -1 0
;
#X text -79 303 (c) 2010 Christian Frisson (GNU GPL);
#X text -40 330 last update: 18/06/2010;
#X obj -9 261 outlet;
#X obj 37 261 outlet;
#X obj 82 261 outlet;
#X obj -30 -17 inlet;
#X obj 7 -17 inlet;
#X obj 45 -17 inlet;
#X obj 83 -17 inlet;
#N canvas 139 162 314 161 pos+controls 0;
#X obj 79 56 tgl 36 0 empty empty Right 0 16 0 12 -262144 -4034 -1
0 1;
#X obj 43 56 tgl 36 0 empty empty Fire 4 16 0 12 -262144 -4034 -1 0
1;
#X obj 7 56 tgl 36 0 empty empty Left 4 16 0 12 -262144 -4034 -1 0
1;
#X obj 43 20 tgl 36 0 empty empty Fwd 6 16 0 12 -262144 -4034 -1 0
1;
#X floatatom 8 126 5 0 0 2 - - -;
#X floatatom 44 126 5 0 0 2 - - -;
#X floatatom 78 127 5 0 0 2 - - -;
#X text 30 96 Positions:;
#X text 19 109 x;
#X text 90 109 z;
#X text 54 109 y;
#X obj 122 1 inlet;
#X obj 162 1 inlet;
#X obj 202 1 inlet;
#X obj 242 1 inlet;
#X obj 124 132 outlet;
#X obj 168 132 outlet;
#X obj 212 132 outlet;
#X obj 255 132 outlet;
#X obj 131 26 route Right Fwd Fire Left;
#X connect 11 0 4 0;
#X connect 11 0 15 0;
#X connect 12 0 5 0;
#X connect 12 0 16 0;
#X connect 13 0 6 0;
#X connect 13 0 17 0;
#X connect 14 0 19 0;
#X connect 14 0 18 0;
#X connect 19 0 0 0;
#X connect 19 1 3 0;
#X connect 19 2 1 0;
#X connect 19 3 2 0;
#X coords 0 -1 1 1 120 150 1 0 0;
#X restore -31 105 pd pos+controls;
#X text -69 317 (c) 2008 Edgar Berdahl (GNU GPL);
#N canvas 139 162 302 72 forces+LEDs 0;
#X floatatom 8 41 5 0 0 2 - - -;
#X floatatom 44 41 5 0 0 2 - - -;
#X floatatom 78 42 5 0 0 2 - - -;
#X text 19 24 x;
#X text 90 24 z;
#X text 54 24 y;
#X obj 122 1 inlet;
#X obj 162 1 inlet;
#X obj 202 1 inlet;
#X obj 124 42 outlet;
#X obj 168 42 outlet;
#X obj 212 42 outlet;
#X text 38 11 Forces:;
#X obj 245 1 inlet;
#X obj 255 42 outlet;
#X connect 6 0 0 0;
#X connect 6 0 9 0;
#X connect 7 0 1 0;
#X connect 7 0 10 0;
#X connect 8 0 2 0;
#X connect 8 0 11 0;
#X connect 13 0 14 0;
#X coords 0 -1 1 1 120 60 1 0 0;
#X restore -30 6 pd forces+LEDs;
#X connect 0 0 18 0;
#X connect 0 1 18 1;
#X connect 0 2 18 2;
#X connect 0 3 18 3;
#X connect 2 0 3 0;
#X connect 3 0 0 0;
#X connect 14 0 20 0;
#X connect 15 0 20 1;
#X connect 16 0 20 2;
#X connect 17 0 20 3;
#X connect 18 0 5 0;
#X connect 18 1 11 0;
#X connect 18 2 12 0;
#X connect 18 3 13 0;
#X connect 20 0 0 1;
#X connect 20 1 0 2;
#X connect 20 2 0 3;
#X connect 20 3 0 4;
