#N canvas 299 252 237 348 10;
#X obj -25 -9 cnv 15 230 20 empty empty dc.jog.shuttlexpress 2 11 1
18 -204786 -33289 0;
#X obj -23 17 inlet;
#X obj -23 37 tgl 15 0 empty empty empty 0 -6 0 8 -24198 -1 -1 0 1
;
#X obj -23 284 outlet;
#X obj 86 282 cnv 20 25 20 empty empty art 0 10 0 14 -262144 -258113
0;
#X obj 39 282 cnv 20 45 20 empty empty numedi 0 10 0 14 -262144 -1
0;
#N canvas 276 201 187 193 hidio 0;
#X obj -16 5 inlet;
#X obj -15 158 outlet;
#X obj -15 114 hidio;
#N canvas 0 22 454 304 remove 0;
#X obj 134 12 inlet;
#X obj 109 60 unpack symbol symbol float float;
#X obj 110 107 pack symbol symbol float;
#X obj 110 135 list trim;
#X obj 116 196 outlet;
#X connect 0 0 1 0;
#X connect 1 0 2 0;
#X connect 1 1 2 1;
#X connect 1 3 2 2;
#X connect 2 0 3 0;
#X connect 3 0 4 0;
#X restore -15 136 pd remove instance numbers;
#X obj -8 93 tgl 15 0 empty empty empty 17 7 0 10 -262144 -1 -1 0 1
;
#X obj -8 72 t b;
#X obj -15 28 bng 15 250 50 0 empty empty empty 17 7 0 10 -262144 -1
-1;
#X msg 19 71 refresh;
#X msg -14 50 open 0x0b33 0x0020;
#X connect 0 0 6 0;
#X connect 2 0 3 0;
#X connect 3 0 1 0;
#X connect 4 0 2 0;
#X connect 5 0 4 0;
#X connect 6 0 8 0;
#X connect 6 0 5 0;
#X connect 7 0 2 0;
#X connect 8 0 2 0;
#X restore -23 55 pd hidio;
#X obj 44 56 cnv 15 100 20 empty empty DeviceCycle 2 11 1 18 -262144
-2049 0;
#X obj 110 282 cnv 20 30 20 empty empty .org 0 10 0 14 -262144 -1 0
;
#N canvas 767 320 321 291 controls 0;
#X floatatom 42 223 5 0 0 0 - - -;
#X floatatom 203 208 5 0 0 0 - - -;
#X obj 49 46 route wheel dial;
#X obj 73 120 moonlib/mknob 128 100 -7 7 0 0 empty empty empty -2 -6
0 8 -262144 -4034 -1 0 1;
#X obj 106 151 moonlib/mknob 64 100 0 255 0 0 empty empty empty -2
-6 0 8 -262144 -4034 -1 0 1;
#X obj -12 68 route button_5 button_6 button_7 button_8 button_9;
#X text 38 239 [-7..7];
#X obj 40 160 tgl 25 0 empty empty 5 10 13 0 12 -262144 -4034 -1 0
1;
#X obj 64 108 tgl 25 0 empty empty 6 10 13 0 12 -262144 -1985 -1 0
1;
#X obj 122 89 tgl 25 0 empty empty 7 10 13 0 12 -262144 -4034 -1 0
1;
#X obj 187 111 tgl 25 0 empty empty 8 10 13 0 12 -262144 -4034 -1 0
1;
#X obj 211 163 tgl 25 0 empty empty 9 10 13 0 12 -262144 -4034 -1 0
1;
#X obj -12 4 inlet;
#X text 187 223 [0..255];
#X text 176 237 (10 / rev);
#X text 40 251 outer wheel;
#X text 172 250 center dial;
#X obj -12 25 route button relative;
#X connect 2 0 0 0;
#X connect 2 0 3 0;
#X connect 2 1 1 0;
#X connect 2 1 4 0;
#X connect 5 0 7 0;
#X connect 5 1 8 0;
#X connect 5 2 9 0;
#X connect 5 3 10 0;
#X connect 5 4 11 0;
#X connect 12 0 17 0;
#X connect 17 0 5 0;
#X connect 17 1 2 0;
#X coords 0 -1 1 1 220 205 1 30 70;
#X restore -16 75 pd controls;
#X text -23 303 (c) 2010 Christian Frisson (GNU GPL);
#X text 16 318 last update: 10/06/2010;
#X connect 1 0 2 0;
#X connect 2 0 6 0;
#X connect 6 0 3 0;
#X connect 6 0 9 0;
