#N canvas 734 68 277 447 10;
#X obj -167 -15 cnv 15 225 20 empty empty dc.jog.shuttlepro2 2 11 1
18 -204786 -66577 0;
#X obj -165 8 inlet;
#X obj -165 29 tgl 15 0 empty empty empty 0 -6 0 8 -24198 -1 -1 0 1
;
#X obj -165 362 outlet;
#N canvas 559 154 173 180 hidio 0;
#X obj -17 3 inlet;
#X obj -16 156 outlet;
#X obj -16 112 hidio;
#N canvas 0 22 454 304 remove 0;
#X obj 134 12 inlet;
#X obj 109 60 unpack symbol symbol float float;
#X obj 110 107 pack symbol symbol float;
#X obj 110 135 list trim;
#X obj 116 196 outlet;
#X connect 0 0 1 0;
#X connect 1 0 2 0;
#X connect 1 1 2 1;
#X connect 1 3 2 2;
#X connect 2 0 3 0;
#X connect 3 0 4 0;
#X restore -16 134 pd remove instance numbers;
#X obj -9 91 tgl 15 0 empty empty empty 17 7 0 10 -262144 -1 -1 0 1
;
#X obj -9 70 t b;
#X obj -16 26 bng 15 250 50 0 empty empty empty 17 7 0 10 -262144 -1
-1;
#X msg 18 69 refresh;
#X msg -15 48 open 0x0b33 0x0030;
#X connect 0 0 6 0;
#X connect 2 0 3 0;
#X connect 3 0 1 0;
#X connect 4 0 2 0;
#X connect 5 0 4 0;
#X connect 6 0 8 0;
#X connect 6 0 5 0;
#X connect 7 0 2 0;
#X connect 8 0 2 0;
#X restore -165 49 pd hidio;
#X obj -57 360 cnv 20 25 20 empty empty art 0 10 0 14 -262144 -258113
0;
#X obj -104 360 cnv 20 45 20 empty empty numedi 0 10 0 14 -262144 -1
0;
#X obj -104 49 cnv 15 100 20 empty empty DeviceCycle 2 11 1 18 -262144
-1985 0;
#X obj -33 360 cnv 20 30 20 empty empty .org 0 10 0 14 -262144 -1 0
;
#N canvas 713 161 327 516 controls 0;
#X obj 58 277 tgl 25 0 empty empty 11 6 13 0 12 -262144 -4034 -1 0
1;
#X obj -81 199 tgl 25 0 empty empty 14 6 13 0 12 -262144 -4034 -1 0
1;
#X obj -51 252 tgl 25 0 empty empty 10 6 13 0 12 -262144 -4034 -1 0
1;
#X obj -76 278 tgl 25 0 empty empty 12 6 13 0 12 -262144 -4034 -1 0
1;
#X obj -67 81 tgl 25 0 empty empty 1 10 13 0 12 -262144 -4034 -1 0
1;
#X obj -25 81 tgl 25 0 empty empty 2 10 13 0 12 -262144 -4034 -1 0
1;
#X obj 17 81 tgl 25 0 empty empty 3 10 13 0 12 -262144 -4034 -1 0 1
;
#X obj 59 81 tgl 25 0 empty empty 4 10 13 0 12 -262144 -4034 -1 0 1
;
#X obj -88 110 tgl 25 0 empty empty 5 10 13 0 12 -262144 -4034 -1 0
1;
#X obj -45 110 tgl 25 0 empty empty 6 10 13 0 12 -262144 -4034 -1 0
1;
#X obj -3 110 tgl 25 0 empty empty 7 10 13 0 12 -262144 -4034 -1 0
1;
#X obj 39 110 tgl 25 0 empty empty 8 10 13 0 12 -262144 -4034 -1 0
1;
#X obj 80 110 tgl 25 0 empty empty 9 10 13 0 12 -262144 -4034 -1 0
1;
#X obj 33 252 tgl 25 0 empty empty 13 6 13 0 12 -262144 -4034 -1 0
1;
#X obj 67 201 tgl 25 0 empty empty 15 6 13 0 12 -262144 -4034 -1 0
1;
#X obj -205 -25 route button_12 button_14 button_10 button_5 button_1
button_6 button_2 button_7 button_3 button_8 button_4 button_9 button_11
button_13 button_15;
#X obj -205 -70 inlet;
#X obj -205 -47 route button;
#X obj -54 24 route relative;
#X floatatom -83 170 5 0 0 0 - - -;
#X floatatom 63 169 5 0 0 0 - - -;
#X obj -54 44 route wheel dial;
#X obj -46 157 moonlib/mknob 96 100 -7 7 0 0 empty empty empty -2 -6
0 8 -262144 -4034 -1 0 1;
#X obj -22 180 moonlib/mknob 48 100 0 255 0 0 empty empty empty -2
-6 0 8 -262144 -4034 -1 0 1;
#X text -90 153 [-7..7];
#X text 51 152 [0..255];
#X text 42 141 center dial;
#X text -100 141 outer wheel;
#X text 50 184 (10 / rev);
#X obj -111 334 outlet;
#X obj -99 354 outlet;
#X obj -84 372 outlet;
#X obj -66 390 outlet;
#X obj -48 409 outlet;
#X obj 30 332 outlet;
#X obj 38 352 outlet;
#X text 29 300 1|1|1|1|1|;
#X text -34 310 6|7|8|9|0;
#X text -97 310 1|2|3|4|5;
#X text 29 310 1|2|3|4|5|;
#X text 14 300 1;
#X text 93 309 l|l;
#X text 93 300 e|a;
#X text 93 291 e|i;
#X text 93 273 w;
#X text 93 282 h|d;
#X obj -63 332 outlet;
#X obj -51 352 outlet;
#X obj -36 370 outlet;
#X obj -18 388 outlet;
#X obj 0 407 outlet;
#X obj -18 332 outlet;
#X obj -6 352 outlet;
#X obj 9 370 outlet;
#X obj 27 388 outlet;
#X obj 45 407 outlet;
#X connect 15 0 3 0;
#X connect 15 0 52 0;
#X connect 15 1 1 0;
#X connect 15 1 54 0;
#X connect 15 2 2 0;
#X connect 15 2 50 0;
#X connect 15 3 8 0;
#X connect 15 3 33 0;
#X connect 15 4 4 0;
#X connect 15 4 29 0;
#X connect 15 5 9 0;
#X connect 15 5 46 0;
#X connect 15 6 5 0;
#X connect 15 6 30 0;
#X connect 15 7 10 0;
#X connect 15 7 47 0;
#X connect 15 8 6 0;
#X connect 15 8 31 0;
#X connect 15 9 11 0;
#X connect 15 9 48 0;
#X connect 15 10 7 0;
#X connect 15 10 32 0;
#X connect 15 11 12 0;
#X connect 15 11 49 0;
#X connect 15 12 13 0;
#X connect 15 12 53 0;
#X connect 15 13 0 0;
#X connect 15 13 51 0;
#X connect 15 14 14 0;
#X connect 15 14 55 0;
#X connect 16 0 17 0;
#X connect 16 0 18 0;
#X connect 17 0 15 0;
#X connect 18 0 21 0;
#X connect 19 0 22 0;
#X connect 20 0 23 0;
#X connect 21 0 19 0;
#X connect 21 0 34 0;
#X connect 21 1 20 0;
#X connect 21 1 35 0;
#X coords 0 -1 1 1 215 265 1 -100 65;
#X restore -158 72 pd controls;
#X obj -158 342 bng 8 250 50 0 empty empty empty 17 7 0 10 -262144
-1 -1;
#X obj -145 342 bng 8 250 50 0 empty empty empty 17 7 0 10 -262144
-1 -1;
#X obj -132 342 bng 8 250 50 0 empty empty empty 17 7 0 10 -262144
-1 -1;
#X obj -119 342 bng 8 250 50 0 empty empty empty 17 7 0 10 -262144
-1 -1;
#X obj -80 342 bng 8 250 50 0 empty empty empty 17 7 0 10 -262144 -1
-1;
#X obj -106 342 bng 8 250 50 0 empty empty empty 17 7 0 10 -262144
-1 -1;
#X obj -93 342 bng 8 250 50 0 empty empty empty 17 7 0 10 -262144 -1
-1;
#X obj -67 342 bng 8 250 50 0 empty empty empty 17 7 0 10 -262144 -1
-1;
#X obj -41 342 bng 8 250 50 0 empty empty empty 17 7 0 10 -262144 -1
-1;
#X obj -15 343 bng 8 250 50 0 empty empty empty 17 7 0 10 -262144 -1
-1;
#X obj -54 342 bng 8 250 50 0 empty empty empty 17 7 0 10 -262144 -1
-1;
#X obj -28 342 bng 8 250 50 0 empty empty empty 17 7 0 10 -262144 -1
-1;
#X obj -2 342 bng 8 250 50 0 empty empty empty 17 7 0 10 -262144 -1
-1;
#X obj 11 342 bng 8 250 50 0 empty empty empty 17 7 0 10 -262144 -1
-1;
#X obj 37 342 bng 8 250 50 0 empty empty empty 17 7 0 10 -262144 -1
-1;
#X obj 24 342 bng 8 250 50 0 empty empty empty 17 7 0 10 -262144 -1
-1;
#X floatatom 26 359 5 0 0 0 - - -;
#X text -163 381 (c) 2010 Christian Frisson (GNU GPL);
#X text -132 396 last update: 10/06/2010;
#X connect 1 0 2 0;
#X connect 2 0 4 0;
#X connect 4 0 3 0;
#X connect 4 0 9 0;
#X connect 9 0 10 0;
#X connect 9 1 11 0;
#X connect 9 2 12 0;
#X connect 9 3 13 0;
#X connect 9 4 15 0;
#X connect 9 5 16 0;
#X connect 9 6 14 0;
#X connect 9 7 17 0;
#X connect 9 8 20 0;
#X connect 9 9 18 0;
#X connect 9 10 21 0;
#X connect 9 11 19 0;
#X connect 9 12 22 0;
#X connect 9 13 23 0;
#X connect 9 14 25 0;
#X connect 9 15 24 0;
#X connect 9 16 26 0;
#X coords 0 0 1 1 140 15 0;
