#N canvas 499 429 252 210 10;
#X obj 1 -45 cnv 15 250 20 empty empty dc.mt.2finger.geo 2 11 1 18
-204786 -66577 0;
#X obj 3 -22 inlet;
#X obj 64 -22 cnv 15 100 20 empty empty DeviceCycle 2 11 1 18 -262144
-1985 0;
#X obj 107 106 cnv 20 25 20 empty empty art 0 10 0 14 -262144 -258113
0;
#X obj 60 106 cnv 20 45 20 empty empty numedi 0 10 0 14 -262144 -1
0;
#X obj 131 106 cnv 20 30 20 empty empty .org 0 10 0 14 -262144 -1 0
;
#X text 44 146 last update: 16/06/2010;
#X obj 3 57 outlet;
#X obj 206 -21 inlet;
#N canvas 337 22 603 599 2finger.geo 0;
#X obj -60 -200 inlet;
#X obj -21 -200 inlet;
#X obj -60 319 outlet;
#X obj -60 -79 zexy/packel 5;
#X obj -60 -111 route 0 1;
#X obj 115 -78 zexy/packel 6;
#X obj 28 -79 zexy/packel 5;
#X obj 201 -79 zexy/packel 6;
#X obj 13 -31 / 2;
#X obj 13 -53 +;
#X obj 186 -31 / 2;
#X obj 186 -53 +;
#X obj -60 -29 *;
#X obj 14 21 sqrt;
#X obj -60 -53 -;
#X obj 115 -54 -;
#X obj 115 -32 *;
#X obj 14 -1 +;
#X obj 55 320 outlet;
#X msg 7 181 0;
#X obj -59 -139 gate 2;
#X obj -21 -171 expr if($i1 == 2 \, 2 \, 0);
#X obj 0 319 outlet;
#X obj 155 57 atan2;
#X obj 155 76 rad2deg;
#X floatatom 153 161 5 0 0 0 - - -;
#X obj 124 -172 b;
#X obj 111 317 outlet;
#X obj 124 208 f;
#X floatatom 124 241 5 0 0 0 - - -;
#X obj 163 243 +;
#X obj 288 -79 zexy/packel 11;
#X obj -15 255 gate;
#X obj -60 255 gate;
#X obj 55 259 gate;
#X obj 382 -80 zexy/packel 11;
#X obj 309 -55 pack f f;
#X obj 154 132 gate;
#X obj 300 11 b;
#X obj 201 192 f;
#X obj 163 215 -;
#X obj 154 188 t f f;
#X obj 155 99 + 180;
#X obj 300 -10 match 0 0 1;
#X obj 78 -2 -;
#X obj 167 0 -;
#X obj 163 268 - 180;
#X obj 163 293 * -1;
#X floatatom -56 354 5 0 0 2 center_x - -;
#X floatatom 1 354 5 0 0 2 center_x - -;
#X floatatom 56 355 5 0 0 2 distance - -;
#X floatatom 112 355 5 0 0 2 angle - -;
#X obj 78 22 abs;
#X obj 167 23 abs;
#X obj 300 -34 expr if($f1 > 0.5 & $f2 > 0.5 \, 1 \, 0);
#X connect 0 0 20 1;
#X connect 1 0 21 0;
#X connect 1 0 26 0;
#X connect 3 0 9 0;
#X connect 3 0 14 0;
#X connect 4 0 3 0;
#X connect 4 0 5 0;
#X connect 4 0 31 0;
#X connect 4 1 6 0;
#X connect 4 1 7 0;
#X connect 4 1 35 0;
#X connect 5 0 11 0;
#X connect 5 0 15 0;
#X connect 5 0 45 0;
#X connect 6 0 9 1;
#X connect 6 0 14 1;
#X connect 6 0 44 0;
#X connect 7 0 11 1;
#X connect 7 0 15 1;
#X connect 8 0 33 1;
#X connect 8 0 44 1;
#X connect 9 0 8 0;
#X connect 10 0 32 1;
#X connect 10 0 45 1;
#X connect 11 0 10 0;
#X connect 12 0 17 0;
#X connect 13 0 34 1;
#X connect 14 0 12 1;
#X connect 14 0 12 0;
#X connect 15 0 16 0;
#X connect 15 0 16 1;
#X connect 16 0 17 1;
#X connect 17 0 13 0;
#X connect 19 0 2 0;
#X connect 19 0 22 0;
#X connect 19 0 18 0;
#X connect 19 0 27 0;
#X connect 19 0 48 0;
#X connect 19 0 49 0;
#X connect 19 0 50 0;
#X connect 19 0 51 0;
#X connect 20 1 4 0;
#X connect 21 0 20 0;
#X connect 23 0 24 0;
#X connect 24 0 42 0;
#X connect 25 0 39 1;
#X connect 25 0 41 0;
#X connect 25 0 28 1;
#X connect 26 0 19 0;
#X connect 26 0 28 0;
#X connect 28 0 29 0;
#X connect 28 0 30 1;
#X connect 30 0 46 0;
#X connect 31 0 36 0;
#X connect 32 0 22 0;
#X connect 32 0 49 0;
#X connect 33 0 2 0;
#X connect 33 0 48 0;
#X connect 34 0 18 0;
#X connect 34 0 50 0;
#X connect 35 0 36 1;
#X connect 36 0 54 0;
#X connect 37 0 25 0;
#X connect 38 0 39 0;
#X connect 39 0 40 1;
#X connect 40 0 30 0;
#X connect 41 0 40 0;
#X connect 42 0 37 1;
#X connect 43 0 38 0;
#X connect 44 0 52 0;
#X connect 44 0 23 1;
#X connect 45 0 53 0;
#X connect 45 0 23 0;
#X connect 46 0 47 0;
#X connect 47 0 27 0;
#X connect 47 0 51 0;
#X connect 54 0 33 0;
#X connect 54 0 32 0;
#X connect 54 0 34 0;
#X connect 54 0 37 0;
#X connect 54 0 43 0;
#X coords 0 -1 1 1 210 50 1 -60 325;
#X restore 3 1 pd 2finger.geo;
#X obj 70 57 outlet;
#X obj 138 57 outlet;
#X obj 206 57 outlet;
#X obj 31 82 cnv 15 163 20 empty empty empty 20 12 0 14 -4034 -66577
0;
#X text 32 83 For use with;
#X obj 110 83 dc.mt.macbook;
#X text 32 130 (c) 2010 Christian Frisson;
#X connect 1 0 9 0;
#X connect 8 0 9 1;
#X connect 9 0 7 0;
#X connect 9 1 10 0;
#X connect 9 2 11 0;
#X connect 9 3 12 0;
