#N canvas 89 22 469 672 10;
#X obj -24 23 fingerpinger;
#X obj 318 -20 cnv 15 115 60 empty empty empty 20 12 0 14 -4034 -66577
0;
#N canvas 1051 275 450 300 gemwin 0;
#X obj 132 136 gemwin;
#X obj 67 89 outlet;
#X obj 67 10 inlet;
#X obj 67 41 route create;
#X msg 67 70 set destroy;
#X msg 142 68 set create;
#X msg 198 112 destroy;
#X msg 132 112 create \, 1;
#X msg 144 48 title fingerpinger;
#X obj 145 7 loadbang;
#X msg 145 29 dimen 480 360;
#X connect 2 0 3 0;
#X connect 3 0 4 0;
#X connect 3 0 7 0;
#X connect 3 1 5 0;
#X connect 3 1 6 0;
#X connect 4 0 1 0;
#X connect 5 0 1 0;
#X connect 6 0 0 0;
#X connect 7 0 0 0;
#X connect 8 0 0 0;
#X connect 9 0 10 0;
#X connect 9 0 8 0;
#X connect 10 0 0 0;
#X restore 323 19 pd gemwin;
#X msg 323 0 create;
#N canvas 753 184 229 330 draw 0;
#X obj 9 10 inlet;
#N canvas 581 497 450 300 finger 0;
#X obj -37 -98 gemhead;
#X obj 148 -74 * 0.25;
#X obj -37 -8 translateXYZ;
#X obj 23 -52 - 0.5;
#X obj -14 -52 - 0.5;
#X obj -37 14 circle 0;
#X msg 75 -32 0;
#X floatatom 75 -10 5 0 0 3 size - -;
#X obj 75 -54 loadbang;
#X obj 192 -97 gemhead;
#X obj -14 -32 * 11;
#X obj 23 -32 * 8;
#X obj 192 -53 translateXYZ;
#X obj 192 17 rotate 0 0 0 1;
#X msg 258 40 0 1 0;
#X obj 232 -6 maxlib/scale 0 3 -90 90;
#X obj 192 -29 scaleXYZ;
#X obj 192 66 curve 2;
#X msg 202 39 width 2;
#X obj 15 -97 unpack f f f f f f f f f f f;
#X obj 15 -120 inlet;
#X obj 192 -75 color 0 1 0;
#X obj -37 -75 color 0.2 0.2 0.2;
#X connect 0 0 22 0;
#X connect 1 0 5 1;
#X connect 1 0 16 1;
#X connect 1 0 16 2;
#X connect 2 0 5 0;
#X connect 3 0 11 0;
#X connect 4 0 10 0;
#X connect 6 0 7 0;
#X connect 7 0 5 1;
#X connect 7 0 16 1;
#X connect 7 0 16 2;
#X connect 8 0 6 0;
#X connect 8 0 14 0;
#X connect 8 0 18 0;
#X connect 9 0 21 0;
#X connect 10 0 2 1;
#X connect 10 0 12 1;
#X connect 11 0 2 2;
#X connect 11 0 12 2;
#X connect 12 0 16 0;
#X connect 13 0 17 0;
#X connect 14 0 17 1;
#X connect 15 0 13 1;
#X connect 16 0 13 0;
#X connect 18 0 17 0;
#X connect 19 1 15 0;
#X connect 19 4 4 0;
#X connect 19 5 3 0;
#X connect 19 10 1 0;
#X connect 20 0 19 0;
#X connect 21 0 12 0;
#X connect 22 0 2 0;
#X restore 9 299 pd finger;
#X obj 9 30 route 0 1 2 3 4 5 6 7 8 9;
#N canvas 199 324 438 223 finger 0;
#X obj -37 -98 gemhead;
#X obj 148 -74 * 0.25;
#X obj -37 -8 translateXYZ;
#X obj 23 -52 - 0.5;
#X obj -14 -52 - 0.5;
#X obj -37 14 circle 0;
#X msg 75 -32 0;
#X floatatom 75 -10 5 0 0 3 size - -;
#X obj 75 -54 loadbang;
#X obj 192 -97 gemhead;
#X obj -37 -75 color 0.2 0.2 0.2;
#X obj -14 -32 * 11;
#X obj 23 -32 * 8;
#X obj 192 -53 translateXYZ;
#X obj 192 -1 rotate 0 0 0 1;
#X obj 192 -75 color 0 1 0;
#X msg 258 22 0 1 0;
#X obj 232 -24 maxlib/scale 0 3 -90 90;
#X obj 192 -29 scaleXYZ;
#X obj 192 48 curve 2;
#X msg 202 21 width 2;
#X obj 15 -97 unpack f f f f f f f f f f f;
#X obj 15 -120 inlet;
#X connect 0 0 10 0;
#X connect 1 0 5 1;
#X connect 1 0 18 1;
#X connect 1 0 18 2;
#X connect 2 0 5 0;
#X connect 3 0 12 0;
#X connect 4 0 11 0;
#X connect 6 0 7 0;
#X connect 7 0 5 1;
#X connect 7 0 18 1;
#X connect 7 0 18 2;
#X connect 8 0 6 0;
#X connect 8 0 16 0;
#X connect 8 0 20 0;
#X connect 9 0 15 0;
#X connect 10 0 2 0;
#X connect 11 0 2 1;
#X connect 11 0 13 1;
#X connect 12 0 2 2;
#X connect 12 0 13 2;
#X connect 13 0 18 0;
#X connect 14 0 19 0;
#X connect 15 0 13 0;
#X connect 16 0 19 1;
#X connect 17 0 14 1;
#X connect 18 0 14 0;
#X connect 20 0 19 0;
#X connect 21 1 17 0;
#X connect 21 4 4 0;
#X connect 21 5 3 0;
#X connect 21 10 1 0;
#X connect 22 0 21 0;
#X restore 156 92 pd finger;
#N canvas 581 497 450 300 finger 0;
#X obj -37 -98 gemhead;
#X obj 148 -74 * 0.25;
#X obj -37 -8 translateXYZ;
#X obj 23 -52 - 0.5;
#X obj -14 -52 - 0.5;
#X obj -37 14 circle 0;
#X msg 75 -32 0;
#X floatatom 75 -10 5 0 0 3 size - -;
#X obj 75 -54 loadbang;
#X obj 192 -97 gemhead;
#X obj -37 -75 color 0.2 0.2 0.2;
#X obj -14 -32 * 11;
#X obj 23 -32 * 8;
#X obj 192 -53 translateXYZ;
#X obj 192 -1 rotate 0 0 0 1;
#X obj 192 -75 color 0 1 0;
#X msg 258 22 0 1 0;
#X obj 232 -24 maxlib/scale 0 3 -90 90;
#X obj 192 -29 scaleXYZ;
#X obj 192 48 curve 2;
#X msg 202 21 width 2;
#X obj 15 -97 unpack f f f f f f f f f f f;
#X obj 15 -120 inlet;
#X connect 0 0 10 0;
#X connect 1 0 5 1;
#X connect 1 0 18 1;
#X connect 1 0 18 2;
#X connect 2 0 5 0;
#X connect 3 0 12 0;
#X connect 4 0 11 0;
#X connect 6 0 7 0;
#X connect 7 0 5 1;
#X connect 7 0 18 1;
#X connect 7 0 18 2;
#X connect 8 0 6 0;
#X connect 8 0 16 0;
#X connect 8 0 20 0;
#X connect 9 0 15 0;
#X connect 10 0 2 0;
#X connect 11 0 2 1;
#X connect 11 0 13 1;
#X connect 12 0 2 2;
#X connect 12 0 13 2;
#X connect 13 0 18 0;
#X connect 14 0 19 0;
#X connect 15 0 13 0;
#X connect 16 0 19 1;
#X connect 17 0 14 1;
#X connect 18 0 14 0;
#X connect 20 0 19 0;
#X connect 21 1 17 0;
#X connect 21 4 4 0;
#X connect 21 5 3 0;
#X connect 21 10 1 0;
#X connect 22 0 21 0;
#X restore 141 112 pd finger;
#N canvas 581 497 450 300 finger 0;
#X obj -37 -98 gemhead;
#X obj 148 -74 * 0.25;
#X obj -37 -8 translateXYZ;
#X obj 23 -52 - 0.5;
#X obj -14 -52 - 0.5;
#X obj -37 14 circle 0;
#X msg 75 -32 0;
#X floatatom 75 -10 5 0 0 3 size - -;
#X obj 75 -54 loadbang;
#X obj 192 -97 gemhead;
#X obj -37 -75 color 0.2 0.2 0.2;
#X obj -14 -32 * 11;
#X obj 23 -32 * 8;
#X obj 192 -53 translateXYZ;
#X obj 192 -1 rotate 0 0 0 1;
#X obj 192 -75 color 0 1 0;
#X msg 258 22 0 1 0;
#X obj 232 -24 maxlib/scale 0 3 -90 90;
#X obj 192 -29 scaleXYZ;
#X obj 192 48 curve 2;
#X msg 202 21 width 2;
#X obj 15 -97 unpack f f f f f f f f f f f;
#X obj 15 -120 inlet;
#X connect 0 0 10 0;
#X connect 1 0 5 1;
#X connect 1 0 18 1;
#X connect 1 0 18 2;
#X connect 2 0 5 0;
#X connect 3 0 12 0;
#X connect 4 0 11 0;
#X connect 6 0 7 0;
#X connect 7 0 5 1;
#X connect 7 0 18 1;
#X connect 7 0 18 2;
#X connect 8 0 6 0;
#X connect 8 0 16 0;
#X connect 8 0 20 0;
#X connect 9 0 15 0;
#X connect 10 0 2 0;
#X connect 11 0 2 1;
#X connect 11 0 13 1;
#X connect 12 0 2 2;
#X connect 12 0 13 2;
#X connect 13 0 18 0;
#X connect 14 0 19 0;
#X connect 15 0 13 0;
#X connect 16 0 19 1;
#X connect 17 0 14 1;
#X connect 18 0 14 0;
#X connect 20 0 19 0;
#X connect 21 1 17 0;
#X connect 21 4 4 0;
#X connect 21 5 3 0;
#X connect 21 10 1 0;
#X connect 22 0 21 0;
#X restore 126 132 pd finger;
#N canvas 581 497 450 300 finger 0;
#X obj -37 -98 gemhead;
#X obj 148 -74 * 0.25;
#X obj -37 -8 translateXYZ;
#X obj 23 -52 - 0.5;
#X obj -14 -52 - 0.5;
#X obj -37 14 circle 0;
#X msg 75 -32 0;
#X floatatom 75 -10 5 0 0 3 size - -;
#X obj 75 -54 loadbang;
#X obj 192 -97 gemhead;
#X obj -37 -75 color 0.2 0.2 0.2;
#X obj -14 -32 * 11;
#X obj 23 -32 * 8;
#X obj 192 -53 translateXYZ;
#X obj 192 -1 rotate 0 0 0 1;
#X obj 192 -75 color 0 1 0;
#X msg 258 22 0 1 0;
#X obj 232 -24 maxlib/scale 0 3 -90 90;
#X obj 192 -29 scaleXYZ;
#X obj 192 48 curve 2;
#X msg 202 21 width 2;
#X obj 15 -97 unpack f f f f f f f f f f f;
#X obj 15 -120 inlet;
#X connect 0 0 10 0;
#X connect 1 0 5 1;
#X connect 1 0 18 1;
#X connect 1 0 18 2;
#X connect 2 0 5 0;
#X connect 3 0 12 0;
#X connect 4 0 11 0;
#X connect 6 0 7 0;
#X connect 7 0 5 1;
#X connect 7 0 18 1;
#X connect 7 0 18 2;
#X connect 8 0 6 0;
#X connect 8 0 16 0;
#X connect 8 0 20 0;
#X connect 9 0 15 0;
#X connect 10 0 2 0;
#X connect 11 0 2 1;
#X connect 11 0 13 1;
#X connect 12 0 2 2;
#X connect 12 0 13 2;
#X connect 13 0 18 0;
#X connect 14 0 19 0;
#X connect 15 0 13 0;
#X connect 16 0 19 1;
#X connect 17 0 14 1;
#X connect 18 0 14 0;
#X connect 20 0 19 0;
#X connect 21 1 17 0;
#X connect 21 4 4 0;
#X connect 21 5 3 0;
#X connect 21 10 1 0;
#X connect 22 0 21 0;
#X restore 111 151 pd finger;
#N canvas 581 497 450 300 finger 0;
#X obj -37 -98 gemhead;
#X obj 148 -74 * 0.25;
#X obj -37 -8 translateXYZ;
#X obj 23 -52 - 0.5;
#X obj -14 -52 - 0.5;
#X obj -37 14 circle 0;
#X msg 75 -32 0;
#X floatatom 75 -10 5 0 0 3 size - -;
#X obj 75 -54 loadbang;
#X obj 192 -97 gemhead;
#X obj -37 -75 color 0.2 0.2 0.2;
#X obj -14 -32 * 11;
#X obj 23 -32 * 8;
#X obj 192 -53 translateXYZ;
#X obj 192 -1 rotate 0 0 0 1;
#X obj 192 -75 color 0 1 0;
#X msg 258 22 0 1 0;
#X obj 232 -24 maxlib/scale 0 3 -90 90;
#X obj 192 -29 scaleXYZ;
#X obj 192 48 curve 2;
#X msg 202 21 width 2;
#X obj 15 -97 unpack f f f f f f f f f f f;
#X obj 15 -120 inlet;
#X connect 0 0 10 0;
#X connect 1 0 5 1;
#X connect 1 0 18 1;
#X connect 1 0 18 2;
#X connect 2 0 5 0;
#X connect 3 0 12 0;
#X connect 4 0 11 0;
#X connect 6 0 7 0;
#X connect 7 0 5 1;
#X connect 7 0 18 1;
#X connect 7 0 18 2;
#X connect 8 0 6 0;
#X connect 8 0 16 0;
#X connect 8 0 20 0;
#X connect 9 0 15 0;
#X connect 10 0 2 0;
#X connect 11 0 2 1;
#X connect 11 0 13 1;
#X connect 12 0 2 2;
#X connect 12 0 13 2;
#X connect 13 0 18 0;
#X connect 14 0 19 0;
#X connect 15 0 13 0;
#X connect 16 0 19 1;
#X connect 17 0 14 1;
#X connect 18 0 14 0;
#X connect 20 0 19 0;
#X connect 21 1 17 0;
#X connect 21 4 4 0;
#X connect 21 5 3 0;
#X connect 21 10 1 0;
#X connect 22 0 21 0;
#X restore 97 172 pd finger;
#N canvas 581 497 450 300 finger 0;
#X obj -37 -98 gemhead;
#X obj 148 -74 * 0.25;
#X obj -37 -8 translateXYZ;
#X obj 23 -52 - 0.5;
#X obj -14 -52 - 0.5;
#X obj -37 14 circle 0;
#X msg 75 -32 0;
#X floatatom 75 -10 5 0 0 3 size - -;
#X obj 75 -54 loadbang;
#X obj 192 -97 gemhead;
#X obj -37 -75 color 0.2 0.2 0.2;
#X obj -14 -32 * 11;
#X obj 23 -32 * 8;
#X obj 192 -53 translateXYZ;
#X obj 192 -1 rotate 0 0 0 1;
#X obj 192 -75 color 0 1 0;
#X msg 258 22 0 1 0;
#X obj 232 -24 maxlib/scale 0 3 -90 90;
#X obj 192 -29 scaleXYZ;
#X obj 192 48 curve 2;
#X msg 202 21 width 2;
#X obj 15 -97 unpack f f f f f f f f f f f;
#X obj 15 -120 inlet;
#X connect 0 0 10 0;
#X connect 1 0 5 1;
#X connect 1 0 18 1;
#X connect 1 0 18 2;
#X connect 2 0 5 0;
#X connect 3 0 12 0;
#X connect 4 0 11 0;
#X connect 6 0 7 0;
#X connect 7 0 5 1;
#X connect 7 0 18 1;
#X connect 7 0 18 2;
#X connect 8 0 6 0;
#X connect 8 0 16 0;
#X connect 8 0 20 0;
#X connect 9 0 15 0;
#X connect 10 0 2 0;
#X connect 11 0 2 1;
#X connect 11 0 13 1;
#X connect 12 0 2 2;
#X connect 12 0 13 2;
#X connect 13 0 18 0;
#X connect 14 0 19 0;
#X connect 15 0 13 0;
#X connect 16 0 19 1;
#X connect 17 0 14 1;
#X connect 18 0 14 0;
#X connect 20 0 19 0;
#X connect 21 1 17 0;
#X connect 21 4 4 0;
#X connect 21 5 3 0;
#X connect 21 10 1 0;
#X connect 22 0 21 0;
#X restore 82 192 pd finger;
#N canvas 581 497 450 300 finger 0;
#X obj -37 -98 gemhead;
#X obj 148 -74 * 0.25;
#X obj -37 -8 translateXYZ;
#X obj 23 -52 - 0.5;
#X obj -14 -52 - 0.5;
#X obj -37 14 circle 0;
#X msg 75 -32 0;
#X floatatom 75 -10 5 0 0 3 size - -;
#X obj 75 -54 loadbang;
#X obj 192 -97 gemhead;
#X obj -37 -75 color 0.2 0.2 0.2;
#X obj -14 -32 * 11;
#X obj 23 -32 * 8;
#X obj 192 -53 translateXYZ;
#X obj 192 -1 rotate 0 0 0 1;
#X obj 192 -75 color 0 1 0;
#X msg 258 22 0 1 0;
#X obj 232 -24 maxlib/scale 0 3 -90 90;
#X obj 192 -29 scaleXYZ;
#X obj 192 48 curve 2;
#X msg 202 21 width 2;
#X obj 15 -97 unpack f f f f f f f f f f f;
#X obj 15 -120 inlet;
#X connect 0 0 10 0;
#X connect 1 0 5 1;
#X connect 1 0 18 1;
#X connect 1 0 18 2;
#X connect 2 0 5 0;
#X connect 3 0 12 0;
#X connect 4 0 11 0;
#X connect 6 0 7 0;
#X connect 7 0 5 1;
#X connect 7 0 18 1;
#X connect 7 0 18 2;
#X connect 8 0 6 0;
#X connect 8 0 16 0;
#X connect 8 0 20 0;
#X connect 9 0 15 0;
#X connect 10 0 2 0;
#X connect 11 0 2 1;
#X connect 11 0 13 1;
#X connect 12 0 2 2;
#X connect 12 0 13 2;
#X connect 13 0 18 0;
#X connect 14 0 19 0;
#X connect 15 0 13 0;
#X connect 16 0 19 1;
#X connect 17 0 14 1;
#X connect 18 0 14 0;
#X connect 20 0 19 0;
#X connect 21 1 17 0;
#X connect 21 4 4 0;
#X connect 21 5 3 0;
#X connect 21 10 1 0;
#X connect 22 0 21 0;
#X restore 67 214 pd finger;
#N canvas 581 497 450 300 finger 0;
#X obj -37 -98 gemhead;
#X obj 148 -74 * 0.25;
#X obj -37 -8 translateXYZ;
#X obj 23 -52 - 0.5;
#X obj -14 -52 - 0.5;
#X obj -37 14 circle 0;
#X msg 75 -32 0;
#X floatatom 75 -10 5 0 0 3 size - -;
#X obj 75 -54 loadbang;
#X obj 192 -97 gemhead;
#X obj -37 -75 color 0.2 0.2 0.2;
#X obj -14 -32 * 11;
#X obj 23 -32 * 8;
#X obj 192 -53 translateXYZ;
#X obj 192 -1 rotate 0 0 0 1;
#X obj 192 -75 color 0 1 0;
#X msg 258 22 0 1 0;
#X obj 232 -24 maxlib/scale 0 3 -90 90;
#X obj 192 -29 scaleXYZ;
#X obj 192 48 curve 2;
#X msg 202 21 width 2;
#X obj 15 -97 unpack f f f f f f f f f f f;
#X obj 15 -120 inlet;
#X connect 0 0 10 0;
#X connect 1 0 5 1;
#X connect 1 0 18 1;
#X connect 1 0 18 2;
#X connect 2 0 5 0;
#X connect 3 0 12 0;
#X connect 4 0 11 0;
#X connect 6 0 7 0;
#X connect 7 0 5 1;
#X connect 7 0 18 1;
#X connect 7 0 18 2;
#X connect 8 0 6 0;
#X connect 8 0 16 0;
#X connect 8 0 20 0;
#X connect 9 0 15 0;
#X connect 10 0 2 0;
#X connect 11 0 2 1;
#X connect 11 0 13 1;
#X connect 12 0 2 2;
#X connect 12 0 13 2;
#X connect 13 0 18 0;
#X connect 14 0 19 0;
#X connect 15 0 13 0;
#X connect 16 0 19 1;
#X connect 17 0 14 1;
#X connect 18 0 14 0;
#X connect 20 0 19 0;
#X connect 21 1 17 0;
#X connect 21 4 4 0;
#X connect 21 5 3 0;
#X connect 21 10 1 0;
#X connect 22 0 21 0;
#X restore 53 237 pd finger;
#N canvas 581 497 450 300 finger 0;
#X obj -37 -98 gemhead;
#X obj 148 -74 * 0.25;
#X obj -37 -8 translateXYZ;
#X obj 23 -52 - 0.5;
#X obj -14 -52 - 0.5;
#X obj -37 14 circle 0;
#X msg 75 -32 0;
#X floatatom 75 -10 5 0 0 3 size - -;
#X obj 75 -54 loadbang;
#X obj 192 -97 gemhead;
#X obj -37 -75 color 0.2 0.2 0.2;
#X obj -14 -32 * 11;
#X obj 23 -32 * 8;
#X obj 192 -53 translateXYZ;
#X obj 192 -1 rotate 0 0 0 1;
#X obj 192 -75 color 0 1 0;
#X msg 258 22 0 1 0;
#X obj 232 -24 maxlib/scale 0 3 -90 90;
#X obj 192 -29 scaleXYZ;
#X obj 192 48 curve 2;
#X msg 202 21 width 2;
#X obj 15 -97 unpack f f f f f f f f f f f;
#X obj 15 -120 inlet;
#X connect 0 0 10 0;
#X connect 1 0 5 1;
#X connect 1 0 18 1;
#X connect 1 0 18 2;
#X connect 2 0 5 0;
#X connect 3 0 12 0;
#X connect 4 0 11 0;
#X connect 6 0 7 0;
#X connect 7 0 5 1;
#X connect 7 0 18 1;
#X connect 7 0 18 2;
#X connect 8 0 6 0;
#X connect 8 0 16 0;
#X connect 8 0 20 0;
#X connect 9 0 15 0;
#X connect 10 0 2 0;
#X connect 11 0 2 1;
#X connect 11 0 13 1;
#X connect 12 0 2 2;
#X connect 12 0 13 2;
#X connect 13 0 18 0;
#X connect 14 0 19 0;
#X connect 15 0 13 0;
#X connect 16 0 19 1;
#X connect 17 0 14 1;
#X connect 18 0 14 0;
#X connect 20 0 19 0;
#X connect 21 1 17 0;
#X connect 21 4 4 0;
#X connect 21 5 3 0;
#X connect 21 10 1 0;
#X connect 22 0 21 0;
#X restore 38 258 pd finger;
#N canvas 581 497 450 300 finger 0;
#X obj -37 -98 gemhead;
#X obj 148 -74 * 0.25;
#X obj -37 -8 translateXYZ;
#X obj 23 -52 - 0.5;
#X obj -14 -52 - 0.5;
#X obj -37 14 circle 0;
#X msg 75 -32 0;
#X floatatom 75 -10 5 0 0 3 size - -;
#X obj 75 -54 loadbang;
#X obj 192 -97 gemhead;
#X obj -37 -75 color 0.2 0.2 0.2;
#X obj -14 -32 * 11;
#X obj 23 -32 * 8;
#X obj 192 -53 translateXYZ;
#X obj 192 -1 rotate 0 0 0 1;
#X obj 192 -75 color 0 1 0;
#X msg 258 22 0 1 0;
#X obj 232 -24 maxlib/scale 0 3 -90 90;
#X obj 192 -29 scaleXYZ;
#X obj 192 48 curve 2;
#X msg 202 21 width 2;
#X obj 15 -97 unpack f f f f f f f f f f f;
#X obj 15 -120 inlet;
#X connect 0 0 10 0;
#X connect 1 0 5 1;
#X connect 1 0 18 1;
#X connect 1 0 18 2;
#X connect 2 0 5 0;
#X connect 3 0 12 0;
#X connect 4 0 11 0;
#X connect 6 0 7 0;
#X connect 7 0 5 1;
#X connect 7 0 18 1;
#X connect 7 0 18 2;
#X connect 8 0 6 0;
#X connect 8 0 16 0;
#X connect 8 0 20 0;
#X connect 9 0 15 0;
#X connect 10 0 2 0;
#X connect 11 0 2 1;
#X connect 11 0 13 1;
#X connect 12 0 2 2;
#X connect 12 0 13 2;
#X connect 13 0 18 0;
#X connect 14 0 19 0;
#X connect 15 0 13 0;
#X connect 16 0 19 1;
#X connect 17 0 14 1;
#X connect 18 0 14 0;
#X connect 20 0 19 0;
#X connect 21 1 17 0;
#X connect 21 4 4 0;
#X connect 21 5 3 0;
#X connect 21 10 1 0;
#X connect 22 0 21 0;
#X restore 23 279 pd finger;
#X obj 190 12 inlet;
#X msg 14 65 0 0 0 0 0 0 0 0 0 0 0;
#X obj 190 32 t b;
#X connect 0 0 2 0;
#X connect 2 0 1 0;
#X connect 2 1 12 0;
#X connect 2 2 11 0;
#X connect 2 3 10 0;
#X connect 2 4 9 0;
#X connect 2 5 8 0;
#X connect 2 6 7 0;
#X connect 2 7 6 0;
#X connect 2 8 5 0;
#X connect 2 9 4 0;
#X connect 2 10 3 0;
#X connect 13 0 15 0;
#X connect 14 0 3 0;
#X connect 14 0 4 0;
#X connect 14 0 5 0;
#X connect 14 0 7 0;
#X connect 14 0 8 0;
#X connect 14 0 9 0;
#X connect 14 0 10 0;
#X connect 14 0 12 0;
#X connect 14 0 1 0;
#X connect 14 0 6 0;
#X connect 14 0 11 0;
#X connect 15 0 14 0;
#X restore -7 45 pd draw;
#X text 319 -21 Create GEM window:;
#X text 32 458 ...and more \, even more than 10!;
#X floatatom 45 45 5 0 0 1 - - -;
#N canvas 168 116 735 516 fingers 0;
#X obj 5 7 inlet;
#X obj 259 12 inlet;
#X obj 10 452 outlet;
#X floatatom 319 116 5 0 0 3 frame - -;
#X floatatom 355 116 5 0 0 3 angle - -;
#X floatatom 391 116 5 0 0 3 M_axis - -;
#X floatatom 427 116 5 0 0 3 m_axis - -;
#X floatatom 463 116 5 0 0 3 x_pos - -;
#X floatatom 499 116 5 0 0 3 y_pos - -;
#X floatatom 535 116 5 0 0 3 x_vel - -;
#X floatatom 571 116 5 0 0 3 y_vel - -;
#X floatatom 605 116 5 0 0 3 id - -;
#X floatatom 639 116 5 0 0 3 state - -;
#X floatatom 673 116 5 0 0 3 size - -;
#X floatatom 320 152 5 0 0 3 frame - -;
#X floatatom 356 152 5 0 0 3 angle - -;
#X floatatom 392 152 5 0 0 3 M_axis - -;
#X floatatom 428 152 5 0 0 3 m_axis - -;
#X floatatom 464 152 5 0 0 3 x_pos - -;
#X floatatom 500 152 5 0 0 3 y_pos - -;
#X floatatom 536 152 5 0 0 3 x_vel - -;
#X floatatom 572 152 5 0 0 3 y_vel - -;
#X floatatom 606 152 5 0 0 3 id - -;
#X floatatom 640 152 5 0 0 3 state - -;
#X floatatom 674 152 5 0 0 3 size - -;
#X obj 72 98 unpack f f f f f f f f f f f;
#X obj 23 59 route 0;
#X obj 23 98 route 1;
#X msg 259 57 0 0 0 0 0 0 0 0 0 0 0;
#X obj 71 59 unpack f f f f f f f f f f f;
#X obj 259 35 t b;
#X floatatom 320 190 5 0 0 3 frame - -;
#X floatatom 356 190 5 0 0 3 angle - -;
#X floatatom 392 190 5 0 0 3 M_axis - -;
#X floatatom 428 190 5 0 0 3 m_axis - -;
#X floatatom 464 190 5 0 0 3 x_pos - -;
#X floatatom 500 190 5 0 0 3 y_pos - -;
#X floatatom 536 190 5 0 0 3 x_vel - -;
#X floatatom 572 190 5 0 0 3 y_vel - -;
#X floatatom 606 190 5 0 0 3 id - -;
#X floatatom 640 190 5 0 0 3 state - -;
#X floatatom 674 190 5 0 0 3 size - -;
#X floatatom 321 226 5 0 0 3 frame - -;
#X floatatom 357 226 5 0 0 3 angle - -;
#X floatatom 393 226 5 0 0 3 M_axis - -;
#X floatatom 429 226 5 0 0 3 m_axis - -;
#X floatatom 465 226 5 0 0 3 x_pos - -;
#X floatatom 501 226 5 0 0 3 y_pos - -;
#X floatatom 537 226 5 0 0 3 x_vel - -;
#X floatatom 573 226 5 0 0 3 y_vel - -;
#X floatatom 607 226 5 0 0 3 id - -;
#X floatatom 641 226 5 0 0 3 state - -;
#X floatatom 675 226 5 0 0 3 size - -;
#X obj 73 171 unpack f f f f f f f f f f f;
#X obj 72 133 unpack f f f f f f f f f f f;
#X floatatom 319 266 5 0 0 3 frame - -;
#X floatatom 355 266 5 0 0 3 angle - -;
#X floatatom 391 266 5 0 0 3 M_axis - -;
#X floatatom 427 266 5 0 0 3 m_axis - -;
#X floatatom 463 266 5 0 0 3 x_pos - -;
#X floatatom 499 266 5 0 0 3 y_pos - -;
#X floatatom 535 266 5 0 0 3 x_vel - -;
#X floatatom 571 266 5 0 0 3 y_vel - -;
#X floatatom 605 266 5 0 0 3 id - -;
#X floatatom 639 266 5 0 0 3 state - -;
#X floatatom 673 266 5 0 0 3 size - -;
#X floatatom 320 302 5 0 0 3 frame - -;
#X floatatom 356 302 5 0 0 3 angle - -;
#X floatatom 392 302 5 0 0 3 M_axis - -;
#X floatatom 428 302 5 0 0 3 m_axis - -;
#X floatatom 464 302 5 0 0 3 x_pos - -;
#X floatatom 500 302 5 0 0 3 y_pos - -;
#X floatatom 536 302 5 0 0 3 x_vel - -;
#X floatatom 572 302 5 0 0 3 y_vel - -;
#X floatatom 606 302 5 0 0 3 id - -;
#X floatatom 640 302 5 0 0 3 state - -;
#X floatatom 674 302 5 0 0 3 size - -;
#X obj 72 248 unpack f f f f f f f f f f f;
#X obj 71 209 unpack f f f f f f f f f f f;
#X floatatom 320 340 5 0 0 3 frame - -;
#X floatatom 356 340 5 0 0 3 angle - -;
#X floatatom 392 340 5 0 0 3 M_axis - -;
#X floatatom 428 340 5 0 0 3 m_axis - -;
#X floatatom 464 340 5 0 0 3 x_pos - -;
#X floatatom 500 340 5 0 0 3 y_pos - -;
#X floatatom 536 340 5 0 0 3 x_vel - -;
#X floatatom 572 340 5 0 0 3 y_vel - -;
#X floatatom 606 340 5 0 0 3 id - -;
#X floatatom 640 340 5 0 0 3 state - -;
#X floatatom 674 340 5 0 0 3 size - -;
#X floatatom 321 376 5 0 0 3 frame - -;
#X floatatom 357 376 5 0 0 3 angle - -;
#X floatatom 393 376 5 0 0 3 M_axis - -;
#X floatatom 429 376 5 0 0 3 m_axis - -;
#X floatatom 465 376 5 0 0 3 x_pos - -;
#X floatatom 501 376 5 0 0 3 y_pos - -;
#X floatatom 537 376 5 0 0 3 x_vel - -;
#X floatatom 573 376 5 0 0 3 y_vel - -;
#X floatatom 607 376 5 0 0 3 id - -;
#X floatatom 641 376 5 0 0 3 state - -;
#X floatatom 675 376 5 0 0 3 size - -;
#X obj 73 321 unpack f f f f f f f f f f f;
#X obj 72 283 unpack f f f f f f f f f f f;
#X floatatom 320 415 5 0 0 3 frame - -;
#X floatatom 356 415 5 0 0 3 angle - -;
#X floatatom 392 415 5 0 0 3 M_axis - -;
#X floatatom 428 415 5 0 0 3 m_axis - -;
#X floatatom 464 415 5 0 0 3 x_pos - -;
#X floatatom 500 415 5 0 0 3 y_pos - -;
#X floatatom 536 415 5 0 0 3 x_vel - -;
#X floatatom 572 415 5 0 0 3 y_vel - -;
#X floatatom 606 415 5 0 0 3 id - -;
#X floatatom 640 415 5 0 0 3 state - -;
#X floatatom 674 415 5 0 0 3 size - -;
#X floatatom 321 451 5 0 0 3 frame - -;
#X floatatom 357 451 5 0 0 3 angle - -;
#X floatatom 393 451 5 0 0 3 M_axis - -;
#X floatatom 429 451 5 0 0 3 m_axis - -;
#X floatatom 465 451 5 0 0 3 x_pos - -;
#X floatatom 501 451 5 0 0 3 y_pos - -;
#X floatatom 537 451 5 0 0 3 x_vel - -;
#X floatatom 573 451 5 0 0 3 y_vel - -;
#X floatatom 607 451 5 0 0 3 id - -;
#X floatatom 641 451 5 0 0 3 state - -;
#X floatatom 675 451 5 0 0 3 size - -;
#X obj 73 397 unpack f f f f f f f f f f f;
#X obj 72 358 unpack f f f f f f f f f f f;
#X obj 24 133 route 2;
#X obj 24 171 route 3;
#X obj 23 209 route 4;
#X obj 23 248 route 5;
#X obj 24 283 route 6;
#X obj 24 321 route 7;
#X obj 24 358 route 8;
#X obj 24 397 route 9;
#X text 264 451 finger 10;
#X text 262 119 finger 1;
#X text 263 152 finger 2;
#X text 263 193 finger 3;
#X text 264 226 finger 4;
#X text 262 269 finger 5;
#X text 263 302 finger 6;
#X text 263 343 finger 7;
#X text 264 376 finger 8;
#X text 263 418 finger 9;
#X connect 0 0 27 0;
#X connect 0 0 26 0;
#X connect 0 0 2 0;
#X connect 0 0 127 0;
#X connect 0 0 128 0;
#X connect 0 0 129 0;
#X connect 0 0 130 0;
#X connect 0 0 131 0;
#X connect 0 0 132 0;
#X connect 0 0 133 0;
#X connect 0 0 134 0;
#X connect 1 0 30 0;
#X connect 25 0 14 0;
#X connect 25 1 15 0;
#X connect 25 2 16 0;
#X connect 25 3 17 0;
#X connect 25 4 18 0;
#X connect 25 5 19 0;
#X connect 25 6 20 0;
#X connect 25 7 21 0;
#X connect 25 8 22 0;
#X connect 25 9 23 0;
#X connect 25 10 24 0;
#X connect 26 0 29 0;
#X connect 27 0 25 0;
#X connect 28 0 25 0;
#X connect 28 0 29 0;
#X connect 28 0 54 0;
#X connect 28 0 53 0;
#X connect 28 0 78 0;
#X connect 28 0 77 0;
#X connect 28 0 102 0;
#X connect 28 0 101 0;
#X connect 28 0 126 0;
#X connect 28 0 125 0;
#X connect 29 0 3 0;
#X connect 29 1 4 0;
#X connect 29 2 5 0;
#X connect 29 3 6 0;
#X connect 29 4 7 0;
#X connect 29 5 8 0;
#X connect 29 6 9 0;
#X connect 29 7 10 0;
#X connect 29 8 11 0;
#X connect 29 9 12 0;
#X connect 29 10 13 0;
#X connect 30 0 28 0;
#X connect 53 0 42 0;
#X connect 53 1 43 0;
#X connect 53 2 44 0;
#X connect 53 3 45 0;
#X connect 53 4 46 0;
#X connect 53 5 47 0;
#X connect 53 6 48 0;
#X connect 53 7 49 0;
#X connect 53 8 50 0;
#X connect 53 9 51 0;
#X connect 53 10 52 0;
#X connect 54 0 31 0;
#X connect 54 1 32 0;
#X connect 54 2 33 0;
#X connect 54 3 34 0;
#X connect 54 4 35 0;
#X connect 54 5 36 0;
#X connect 54 6 37 0;
#X connect 54 7 38 0;
#X connect 54 8 39 0;
#X connect 54 9 40 0;
#X connect 54 10 41 0;
#X connect 77 0 66 0;
#X connect 77 1 67 0;
#X connect 77 2 68 0;
#X connect 77 3 69 0;
#X connect 77 4 70 0;
#X connect 77 5 71 0;
#X connect 77 6 72 0;
#X connect 77 7 73 0;
#X connect 77 8 74 0;
#X connect 77 9 75 0;
#X connect 77 10 76 0;
#X connect 78 0 55 0;
#X connect 78 1 56 0;
#X connect 78 2 57 0;
#X connect 78 3 58 0;
#X connect 78 4 59 0;
#X connect 78 5 60 0;
#X connect 78 6 61 0;
#X connect 78 7 62 0;
#X connect 78 8 63 0;
#X connect 78 9 64 0;
#X connect 78 10 65 0;
#X connect 101 0 90 0;
#X connect 101 1 91 0;
#X connect 101 2 92 0;
#X connect 101 3 93 0;
#X connect 101 4 94 0;
#X connect 101 5 95 0;
#X connect 101 6 96 0;
#X connect 101 7 97 0;
#X connect 101 8 98 0;
#X connect 101 9 99 0;
#X connect 101 10 100 0;
#X connect 102 0 79 0;
#X connect 102 1 80 0;
#X connect 102 2 81 0;
#X connect 102 3 82 0;
#X connect 102 4 83 0;
#X connect 102 5 84 0;
#X connect 102 6 85 0;
#X connect 102 7 86 0;
#X connect 102 8 87 0;
#X connect 102 9 88 0;
#X connect 102 10 89 0;
#X connect 125 0 114 0;
#X connect 125 1 115 0;
#X connect 125 2 116 0;
#X connect 125 3 117 0;
#X connect 125 4 118 0;
#X connect 125 5 119 0;
#X connect 125 6 120 0;
#X connect 125 7 121 0;
#X connect 125 8 122 0;
#X connect 125 9 123 0;
#X connect 125 10 124 0;
#X connect 126 0 103 0;
#X connect 126 1 104 0;
#X connect 126 2 105 0;
#X connect 126 3 106 0;
#X connect 126 4 107 0;
#X connect 126 5 108 0;
#X connect 126 6 109 0;
#X connect 126 7 110 0;
#X connect 126 8 111 0;
#X connect 126 9 112 0;
#X connect 126 10 113 0;
#X connect 127 0 54 0;
#X connect 128 0 53 0;
#X connect 129 0 78 0;
#X connect 130 0 77 0;
#X connect 131 0 102 0;
#X connect 132 0 101 0;
#X connect 133 0 126 0;
#X connect 134 0 125 0;
#X coords 0 -1 1 1 455 390 1 260 100;
#X restore -24 67 pd fingers;
#X text 79 45 fingers active;
#X obj -26 -45 cnv 15 460 20 empty empty dc.mt.macbook 2 11 1 18 -204786
-66577 0;
#X obj -24 -22 inlet;
#X obj -24 -1 tgl 15 0 empty empty empty 0 -6 0 8 -24198 -1 -1 0 1
;
#X obj 81 22 cnv 15 100 20 empty empty DeviceCycle 2 11 1 18 -262144
-1985 0;
#X obj 55 23 s 0;
#X obj 410 45 r 0;
#X obj 206 543 cnv 20 25 20 empty empty art 0 10 0 14 -262144 -258113
0;
#X obj 159 543 cnv 20 45 20 empty empty numedi 0 10 0 14 -262144 -1
0;
#X obj 230 543 cnv 20 30 20 empty empty .org 0 10 0 14 -262144 -1 0
;
#X obj -24 463 outlet;
#X text 62 594 (c) 2009 steike (Erling Ellingsen): initial code;
#X text 40 579 (c) 2009 [ a n y m a ] (Michael & Max Egger): Max object
;
#X text 62 564 (c) 2010 Christian Frisson: flext port (GNU GPL);
#X text 140 609 last update: 16/06/2010;
#X obj 35 477 cnv 15 360 60 empty empty empty 20 12 0 14 -4034 -66577
0;
#X text 35 507 The Pd GUI won't follow if data from too many fingers
is displayed on the patch or posted in the console...;
#X text 36 476 Don't connect a bang widget at the second outlet or
else Pd might crash...;
#X obj 184 44 outlet;
#X connect 0 0 4 0;
#X connect 0 0 8 0;
#X connect 0 1 7 0;
#X connect 0 1 4 1;
#X connect 0 1 14 0;
#X connect 0 1 27 0;
#X connect 2 0 3 0;
#X connect 3 0 2 0;
#X connect 8 0 19 0;
#X connect 11 0 12 0;
#X connect 12 0 0 0;
#X connect 12 0 14 0;
#X connect 12 0 4 1;
#X connect 15 0 8 1;
