#N canvas 18 84 544 461 10;
#X obj 4 5 inlet;
#X obj 4 27 sig~;
#X obj 3 49 biquad~ 0 0 1 -1 0;
#X floatatom 2 395 10 0 0 0 - - -;
#X obj 2 373 snapshot~;
#X obj 5 440 hsl 128 15 -100 100 0 0 empty empty empty -2 -6 0 10 -262144
-1 -1 6350 1;
#X obj 34 326 tgl 15 0 empty empty empty 0 -6 0 10 -262144 -1 -1 1
1;
#X obj 18 114 samplerate~;
#X floatatom 18 136 5 0 0 0 - - -;
#X obj 18 94 bng 15 250 50 0 empty empty empty 0 -6 0 8 -262144 -1
-1;
#X text 57 135 Hz;
#X obj 3 155 /~;
#X obj 18 71 loadbang;
#X obj 2 243 biquad~ 0.9992 0 0.0008 0 0;
#X msg 88 186 0.9992 0 0.0008 0 0;
#X obj 34 349 metro \$1;
#X text 89 332 The rate we should be sampling here depends on exactly
how well the driver is working and what the CPU load is in PD. 5 is
a good guess for now.;
#X text 164 395 Edgar Berdahl;
#X text 164 407 Stanford University \, 2008;
#X text 183 2 We can use this patch to help provide a velocity estimate
for viscous damping.;
#X text 183 81 Since the sampling of inputs may not be uniform \, we
transform them to an audio signal and then work from there.;
#X text 65 267 This transforms the scaling of the velocity output so
that we can use convenient scaling factors outside of this patch.;
#X obj 10 416 outlet;
#X obj 34 304 loadbang;
#X obj 3 280 *~ -1e+08;
#X msg 88 165 0.998 0 0.003 0 0;
#X msg 88 207 0.9999 0 0.00035 0 0;
#X connect 0 0 1 0;
#X connect 1 0 2 0;
#X connect 2 0 11 0;
#X connect 3 0 5 0;
#X connect 3 0 22 0;
#X connect 4 0 3 0;
#X connect 6 0 15 0;
#X connect 7 0 8 0;
#X connect 8 0 11 1;
#X connect 9 0 7 0;
#X connect 11 0 13 0;
#X connect 12 0 9 0;
#X connect 13 0 24 0;
#X connect 14 0 13 0;
#X connect 15 0 4 0;
#X connect 23 0 6 0;
#X connect 24 0 4 0;
#X connect 25 0 13 0;
#X connect 26 0 13 0;
